REM DIRINDEX 1\4,1\2\5,1\2\6,1\3\7,1\3\8
REM DIRNAME cjc124,folder01,folder02,folder03,folder04,folder05,folder06,folder07
TITLE ""
FILE "077_Day39_Check2_Phrases.mp3" MP3
  TRACK 01 AUDIO
    TITLE "0:"
    INDEX 01 00:00:00
  TRACK 02 AUDIO
    TITLE "4:cjc124_2511"
    INDEX 01 00:00:33
  TRACK 03 AUDIO
    TITLE "0:"
    INDEX 01 00:01:58
  TRACK 04 AUDIO
    TITLE "5:cjc124_2512"
    INDEX 01 00:02:20
  TRACK 05 AUDIO
    TITLE "0:"
    INDEX 01 00:03:55
  TRACK 06 AUDIO
    TITLE "6:cjc124_2513"
    INDEX 01 00:04:03
  TRACK 07 AUDIO
    TITLE "0:"
    INDEX 01 00:05:56
  TRACK 08 AUDIO
    TITLE "5:cjc124_2514"
    INDEX 01 00:06:22
  TRACK 09 AUDIO
    TITLE "0:"
    INDEX 01 00:07:74
  TRACK 10 AUDIO
    TITLE "6:cjc124_2515"
    INDEX 01 00:08:19
  TRACK 11 AUDIO
    TITLE "0:"
    INDEX 01 00:09:44
  TRACK 12 AUDIO
    TITLE "5:cjc124_2516"
    INDEX 01 00:10:10
  TRACK 13 AUDIO
    TITLE "0:"
    INDEX 01 00:11:39
  TRACK 14 AUDIO
    TITLE "6:cjc124_2517"
    INDEX 01 00:11:72
  TRACK 15 AUDIO
    TITLE "0:"
    INDEX 01 00:13:16
  TRACK 16 AUDIO
    TITLE "5:cjc124_2518"
    INDEX 01 00:13:53
  TRACK 17 AUDIO
    TITLE "0:"
    INDEX 01 00:15:19
  TRACK 18 AUDIO
    TITLE "6:cjc124_2519"
    INDEX 01 00:15:44
  TRACK 19 AUDIO
    TITLE "0:"
    INDEX 01 00:17:10
  TRACK 20 AUDIO
    TITLE "5:cjc124_2520"
    INDEX 01 00:17:47
  TRACK 21 AUDIO
    TITLE "0:"
    INDEX 01 00:19:01
  TRACK 22 AUDIO
    TITLE "6:cjc124_2521"
    INDEX 01 00:19:18
  TRACK 23 AUDIO
    TITLE "0:"
    INDEX 01 00:20:67
  TRACK 24 AUDIO
    TITLE "5:cjc124_2522"
    INDEX 01 00:21:37
  TRACK 25 AUDIO
    TITLE "0:"
    INDEX 01 00:23:16
  TRACK 26 AUDIO
    TITLE "6:cjc124_2523"
    INDEX 01 00:23:34
  TRACK 27 AUDIO
    TITLE "0:"
    INDEX 01 00:24:53
  TRACK 28 AUDIO
    TITLE "5:cjc124_2524"
    INDEX 01 00:25:15
  TRACK 29 AUDIO
    TITLE "0:"
    INDEX 01 00:26:73
  TRACK 30 AUDIO
    TITLE "6:cjc124_2525"
    INDEX 01 00:27:16
  TRACK 31 AUDIO
    TITLE "0:"
    INDEX 01 00:28:59
  TRACK 32 AUDIO
    TITLE "5:cjc124_2526"
    INDEX 01 00:29:19
  TRACK 33 AUDIO
    TITLE "0:"
    INDEX 01 00:31:35
  TRACK 34 AUDIO
    TITLE "6:cjc124_2527"
    INDEX 01 00:31:53
  TRACK 35 AUDIO
    TITLE "0:"
    INDEX 01 00:34:04
  TRACK 36 AUDIO
    TITLE "5:cjc124_2528"
    INDEX 01 00:34:45
  TRACK 37 AUDIO
    TITLE "0:"
    INDEX 01 00:37:14
  TRACK 38 AUDIO
    TITLE "6:cjc124_2529"
    INDEX 01 00:37:34
  TRACK 39 AUDIO
    TITLE "0:"
    INDEX 01 00:39:43
  TRACK 40 AUDIO
    TITLE "5:cjc124_2530"
    INDEX 01 00:40:05
  TRACK 41 AUDIO
    TITLE "0:"
    INDEX 01 00:41:67
  TRACK 42 AUDIO
    TITLE "6:cjc124_2531"
    INDEX 01 00:42:14
  TRACK 43 AUDIO
    TITLE "0:"
    INDEX 01 00:43:68
  TRACK 44 AUDIO
    TITLE "5:cjc124_2532"
    INDEX 01 00:44:30
  TRACK 45 AUDIO
    TITLE "0:"
    INDEX 01 00:46:13
  TRACK 46 AUDIO
    TITLE "6:cjc124_2533"
    INDEX 01 00:46:33
  TRACK 47 AUDIO
    TITLE "0:"
    INDEX 01 00:47:52
  TRACK 48 AUDIO
    TITLE "5:cjc124_2534"
    INDEX 01 00:48:18
  TRACK 49 AUDIO
    TITLE "0:"
    INDEX 01 00:50:29
  TRACK 50 AUDIO
    TITLE "6:cjc124_2535"
    INDEX 01 00:50:46
  TRACK 51 AUDIO
    TITLE "0:"
    INDEX 01 00:52:47
  TRACK 52 AUDIO
    TITLE "5:cjc124_2536"
    INDEX 01 00:53:19
  TRACK 53 AUDIO
    TITLE "0:"
    INDEX 01 00:54:62
  TRACK 54 AUDIO
    TITLE "6:cjc124_2537"
    INDEX 01 00:55:10
  TRACK 55 AUDIO
    TITLE "0:"
    INDEX 01 00:56:55
  TRACK 56 AUDIO
    TITLE "5:cjc124_2538"
    INDEX 01 00:57:23
  TRACK 57 AUDIO
    TITLE "0:"
    INDEX 01 00:59:20
  TRACK 58 AUDIO
    TITLE "6:cjc124_2539"
    INDEX 01 00:59:41
  TRACK 59 AUDIO
    TITLE "0:"
    INDEX 01 01:01:70
  TRACK 60 AUDIO
    TITLE "5:cjc124_2540"
    INDEX 01 01:02:32
  TRACK 61 AUDIO
    TITLE "0:"
    INDEX 01 01:04:35
  TRACK 62 AUDIO
    TITLE "6:cjc124_2541"
    INDEX 01 01:04:52
  TRACK 63 AUDIO
    TITLE "0:"
    INDEX 01 01:07:49
  TRACK 64 AUDIO
    TITLE "5:cjc124_2542"
    INDEX 01 01:08:13
  TRACK 65 AUDIO
    TITLE "0:"
    INDEX 01 01:10:14
  TRACK 66 AUDIO
    TITLE "6:cjc124_2543"
    INDEX 01 01:10:41
  TRACK 67 AUDIO
    TITLE "0:"
    INDEX 01 01:12:62
